<?xml version="1.0" standalone="no"?>
<!DOCTYPE svg PUBLIC "-//W3C//DTD SVG 20010904//EN"
 "http://www.w3.org/TR/2001/REC-SVG-20010904/DTD/svg10.dtd">
<svg version="1.0" xmlns="http://www.w3.org/2000/svg"
 width="700.000000pt" height="700.000000pt" viewBox="0 0 700.000000 700.000000"
 preserveAspectRatio="xMidYMid meet">
<metadata>
Created by potrace 1.11, written by Peter Selinger 2001-2013
</metadata>
<g transform="translate(0.000000,700.000000) scale(0.100000,-0.100000)"
fill="#000000" stroke="none">
<path d="M1015 6272 c-61 -6 -162 -46 -227 -89 -113 -74 -189 -181 -223 -313
-15 -60 -17 -249 -17 -2397 0 -1283 3 -2336 6 -2341 3 -5 8 -24 11 -43 10 -59
72 -172 122 -225 63 -67 143 -119 234 -152 l74 -27 2385 -1 c2617 -1 2453 -5
2585 60 144 72 239 188 280 347 16 59 17 233 18 2389 0 2162 -2 2330 -18 2390
-52 199 -214 352 -415 394 -54 11 -476 13 -2425 13 -1298 -1 -2373 -3 -2390
-5z m532 -679 c180 -120 333 -220 338 -223 27 -14 550 -366 553 -372 2 -5 8
-8 13 -8 5 0 46 -25 91 -55 50 -34 85 -52 92 -46 6 4 181 144 389 310 208 165
380 301 383 301 2 0 53 -39 112 -86 59 -47 123 -99 142 -114 19 -15 116 -93
215 -172 99 -79 210 -167 247 -196 l67 -53 98 66 c54 36 105 70 113 75 8 6
125 84 260 173 135 89 400 264 589 389 l344 228 68 0 c37 0 75 -3 84 -6 44
-17 42 67 41 -2337 l-1 -2279 -24 -19 c-23 -19 -74 -19 -2347 -19 -1731 0
-2329 3 -2348 12 -14 6 -29 20 -33 32 -4 12 -8 1040 -8 2286 -1 2355 -2 2307
37 2323 7 3 45 6 85 6 l72 1 328 -217z m1738 209 c-12 -10 -171 -135 -220
-172 -18 -14 -128 -100 -244 -192 -116 -93 -214 -168 -217 -168 -3 0 -146 93
-317 207 -172 113 -352 233 -402 265 -49 33 -92 62 -94 64 -2 2 335 4 749 4
415 0 750 -4 745 -8z m1695 -23 c-112 -76 -756 -502 -767 -506 -10 -4 -85 49
-168 119 -18 15 -358 285 -479 380 l-49 38 754 0 753 0 -44 -31z"/>
<path d="M1528 4335 c-3 -17 -2 -372 1 -427 1 -15 38 -16 466 -17 354 0 465 3
466 12 4 45 3 440 -1 445 -3 4 -213 7 -467 7 -454 0 -462 0 -465 -20z"/>
<path d="M2791 4350 c-6 -4 -8 -426 -2 -452 0 -3 562 -6 1249 -6 l1247 0 0
229 c0 126 -2 230 -5 230 -18 4 -2483 3 -2489 -1z"/>
<path d="M1527 3415 c-2 -9 -1 -427 2 -448 1 -4 211 -6 468 -5 l467 3 1 223
c0 139 -4 226 -10 230 -17 12 -924 9 -928 -3z"/>
<path d="M2787 3415 c-2 -5 -3 -109 -3 -230 l1 -220 1250 -3 1250 -2 0 232 0
233 -1248 0 c-836 0 -1248 -3 -1250 -10z"/>
<path d="M4022 2485 c-3 -5 -6 -110 -7 -232 l0 -223 633 0 c347 0 633 3 633 8
4 25 3 452 -1 453 -3 1 -286 2 -628 3 -407 1 -626 -2 -630 -9z"/>
</g>
</svg>
