<svg xmlns="http://www.w3.org/2000/svg" height="330" width="1080" fill="#f7f3e8"><path d="M678.905 76.979c12.694-8.463 16.355-25.974 8.195-39.122-8.155-13.147-25.058-16.957-37.737-8.499-12.684 8.458-16.355 25.974-8.195 39.127 8.18 13.162 25.043 16.957 37.737 8.494z"/><path d="M1035.343 256.58v-15.51h-77.146c.528-4.333-.539-8.867-3.367-12.558l-6.998-9.146 38.436-54.12 7.606 1.293c.818.134 1.631.201 2.434.201 7.198 0 13.547-5.402 14.75-13.007 1.336-8.453-4.2-16.43-12.355-17.81l-87.387-14.818-81.625-50.682c-7.102-4.415-16.285-2.016-20.525 5.33a16.555 16.555 0 00-1.316 2.947c-.768 1.262-2.13 3.397-3.332 5.527-1.172 2.15-2.768 4.793-4.26 7.766-1.526 2.988-3.347 6.333-5.032 10.045-3.517 7.398-7.352 16.073-10.799 25.715-.648 1.743-1.282 3.542-1.915 5.336l-70.697-11.984-81.625-50.682c-7.098-4.415-16.286-2.016-20.525 5.33a16.555 16.555 0 00-1.317 2.947c-.768 1.262-2.13 3.397-3.332 5.527-1.172 2.15-2.768 4.793-4.26 7.766-1.526 2.988-3.346 6.333-5.032 10.045-3.516 7.398-7.352 16.073-10.799 25.715-1.78 4.783-3.546 9.756-5.032 14.978a5648.84 5648.84 0 01-2.345 7.802l-.284.987-.364 1.2-.055.217-.105.429-.414 1.721-.828 3.449-.952 4.348-.983 4.782c-.658 3.236-.938 5.754-1.401 8.634a235.762 235.762 0 00-1.691 16.104c-.728 10.315-.778 19.724-.569 27.748.215 8.024.698 14.662 1.127 19.413l.16 1.505h-32.281v15.51h164.408l-10.939 15.406c-7.172-3.634-16.27-6.617-29.358-6.617-20.155 0-30.924 7.052-39.613 12.744-7.222 4.715-11.586 7.563-22.435 7.563-10.863 0-15.228-2.853-22.455-7.579-8.664-5.671-19.442-12.728-39.608-12.728v15.51c15.836 0 23.857 5.252 31.628 10.34 7.835 5.123 15.247 9.967 30.435 9.967 15.168 0 22.57-4.834 30.456-9.983 7.756-5.072 15.766-10.324 31.592-10.324 15.821 0 23.842 5.247 31.643 10.345 7.826 5.123 15.227 9.962 30.415 9.962 15.173 0 22.57-4.834 30.456-9.978 7.756-5.077 15.771-10.33 31.602-10.33 15.807 0 23.827 5.243 31.618 10.336 7.84 5.128 15.248 9.972 30.44 9.972 15.178 0 22.575-4.839 30.436-9.972 7.761-5.083 15.781-10.335 31.613-10.335 15.826 0 23.846 5.252 31.637 10.345 7.831 5.123 15.238 9.962 30.416 9.962 15.203 0 22.604-4.849 30.475-10.004 7.756-5.066 15.772-10.303 31.583-10.303v-15.51c-20.13 0-30.904 7.036-39.608 12.723-7.218 4.73-11.577 7.584-22.45 7.584-10.854 0-15.213-2.848-22.455-7.584-8.08-5.289-18.116-11.71-35.783-12.558l6.36-8.954zm-280.02-28.068l-6.993-9.146 22.007-30.99c-.115 1.345-.26 2.71-.35 4.023-.728 10.314-.778 19.724-.568 27.748.214 8.023.698 14.662 1.127 19.413l.16 1.504h-12.011c.524-4.327-.549-8.86-3.372-12.552zm134.735-16.188l26.41 25.044-2.628 3.702h-61.18zm13.617-61.078l66.009 11.193-31.483 44.333-30.45-39.783c-5.916-7.74-16.5-10.221-25.174-5.372l-2.948 1.639-37.872 21.14 1.381-4.291 1.167-3.34.584-1.67.14-.413.075-.207.04-.109c.074-.232-.56 1.82-.285.936l.02-.047.3-.677c.792-1.81 1.58-3.608 2.369-5.392 1.461-3.588 3.192-7.042 4.903-10.36 3.296-6.665 6.878-12.693 10.03-17.687 1.526-2.56 3.092-4.7 4.404-6.675a60.444 60.444 0 012.36-3.33l29.158 18.1a14.555 14.555 0 005.272 2.012zm-199.511 0l66.008 11.193-31.483 44.338-30.45-39.788c-5.916-7.74-16.5-10.221-25.174-5.372l-2.948 1.639-37.872 21.14 1.382-4.291 1.167-3.34.583-1.67.14-.413.075-.207.04-.109c.075-.232-.559 1.82-.285.936l.02-.047.3-.677c.793-1.81 1.58-3.608 2.369-5.392 1.461-3.588 3.192-7.042 4.903-10.36 3.297-6.665 6.878-12.693 10.03-17.687 1.527-2.56 3.093-4.7 4.405-6.675a60.444 60.444 0 012.359-3.33l29.158 18.1a14.555 14.555 0 005.273 2.012zm-51.016 89.824l37.399-28.746 26.41 25.044-2.623 3.702zm242.178 26.072c-10.53 2.445-17.672 7.01-23.712 10.97-7.213 4.716-11.572 7.564-22.425 7.564-10.869 0-15.228-2.853-22.49-7.605-8.66-5.66-19.438-12.702-39.569-12.702-20.155 0-30.934 7.057-39.628 12.749-7.217 4.715-11.576 7.558-22.43 7.558-9.417 0-13.946-2.145-19.711-5.805l16.54-23.291h180.921z"/><path d="M878.417 76.979c12.694-8.463 16.355-25.974 8.195-39.122-8.155-13.147-25.059-16.957-37.738-8.499-12.684 8.458-16.355 25.974-8.195 39.127 8.18 13.162 25.044 16.957 37.738 8.494z"/><g><path d="M183.218 76.979c12.694-8.463 16.355-25.974 8.195-39.122-8.155-13.147-25.06-16.957-37.738-8.499-12.684 8.458-16.355 25.974-8.195 39.127 8.18 13.162 25.044 16.957 37.738 8.494z"/><path d="M539.655 256.58v-15.51H462.51c.529-4.333-.539-8.867-3.367-12.558l-6.998-9.146 38.436-54.12 7.607 1.293c.818.134 1.63.201 2.434.201 7.197 0 13.547-5.402 14.749-13.007 1.336-8.453-4.2-16.43-12.355-17.81l-87.386-14.818-81.625-50.682c-7.103-4.415-16.286-2.016-20.525 5.33a16.555 16.555 0 00-1.317 2.947c-.768 1.262-2.13 3.397-3.332 5.527-1.172 2.15-2.768 4.793-4.26 7.766-1.526 2.988-3.346 6.333-5.032 10.045-3.516 7.398-7.352 16.073-10.799 25.715-.648 1.743-1.281 3.542-1.915 5.336l-70.697-11.984-81.625-50.682c-7.098-4.415-16.285-2.016-20.525 5.33a16.555 16.555 0 00-1.317 2.947c-.768 1.262-2.13 3.397-3.331 5.527-1.173 2.15-2.769 4.793-4.26 7.766-1.526 2.988-3.347 6.333-5.033 10.045-3.516 7.398-7.352 16.073-10.798 25.715-1.78 4.783-3.547 9.756-5.033 14.978a5648.84 5648.84 0 01-2.344 7.802l-.285.987-.364 1.2-.055.217-.104.429-.414 1.721-.828 3.449-.953 4.348-.982 4.782c-.659 3.236-.938 5.754-1.402 8.634a235.762 235.762 0 00-1.69 16.104c-.73 10.315-.779 19.724-.57 27.748.215 8.024.699 14.662 1.128 19.413.06.564.104.993.16 1.505H43.22v15.51h164.408l-10.938 15.406c-7.173-3.634-16.27-6.617-29.358-6.617-20.156 0-30.925 7.052-39.613 12.744-7.223 4.715-11.587 7.563-22.436 7.563-10.863 0-15.227-2.853-22.455-7.579-8.663-5.671-19.442-12.728-39.608-12.728v15.51c15.837 0 23.857 5.252 31.628 10.34 7.836 5.123 15.248 9.967 30.435 9.967 15.168 0 22.57-4.834 30.456-9.983 7.756-5.072 15.766-10.324 31.593-10.324 15.82 0 23.841 5.247 31.642 10.345 7.826 5.123 15.228 9.962 30.416 9.962 15.173 0 22.57-4.834 30.455-9.978 7.756-5.077 15.772-10.33 31.603-10.33 15.806 0 23.826 5.243 31.617 10.336 7.841 5.128 15.248 9.972 30.44 9.972 15.179 0 22.576-4.839 30.436-9.972 7.761-5.083 15.782-10.335 31.613-10.335 15.826 0 23.847 5.252 31.638 10.345 7.83 5.123 15.237 9.962 30.415 9.962 15.203 0 22.605-4.849 30.476-10.004 7.756-5.066 15.77-10.303 31.582-10.303v-15.51c-20.13 0-30.904 7.036-39.608 12.723-7.217 4.73-11.577 7.584-22.45 7.584-10.853 0-15.213-2.848-22.455-7.584-8.08-5.289-18.116-11.71-35.782-12.558l6.36-8.954zm-280.02-28.068l-6.992-9.146 22.006-30.99c-.115 1.345-.26 2.71-.35 4.023-.727 10.314-.777 19.724-.568 27.748.215 8.023.698 14.662 1.127 19.413l.16 1.504h-12.01c.523-4.327-.55-8.86-3.372-12.552zm134.736-16.188l26.41 25.044-2.628 3.702h-61.18zm13.617-61.078l66.008 11.193-31.483 44.333-30.45-39.783c-5.916-7.74-16.5-10.221-25.174-5.372l-2.948 1.639-37.872 21.14 1.382-4.291 1.167-3.34.583-1.67.14-.413.075-.207.04-.109c.075-.232-.559 1.82-.285.936l.02-.047.3-.677c.793-1.81 1.58-3.608 2.369-5.392 1.461-3.588 3.192-7.042 4.903-10.36 3.297-6.665 6.878-12.693 10.03-17.687 1.527-2.56 3.093-4.7 4.405-6.675a60.444 60.444 0 012.359-3.33l29.158 18.1a14.555 14.555 0 005.273 2.012zm-199.512 0l66.008 11.193-31.483 44.338-30.45-39.788c-5.916-7.74-16.5-10.221-25.174-5.372l-2.947 1.639-37.873 21.14 1.382-4.291 1.167-3.34.584-1.67.14-.413.074-.207.04-.109c.075-.232-.559 1.82-.284.936l.02-.047.299-.677c.793-1.81 1.581-3.608 2.37-5.392 1.46-3.588 3.191-7.042 4.902-10.36 3.297-6.665 6.878-12.693 10.03-17.687 1.527-2.56 3.093-4.7 4.405-6.675a60.444 60.444 0 012.36-3.33l29.158 18.1a14.555 14.555 0 005.272 2.012zM157.46 241.07l37.398-28.746 26.41 25.044-2.623 3.702zm242.177 26.072c-10.53 2.445-17.672 7.01-23.712 10.97-7.212 4.716-11.572 7.564-22.425 7.564-10.869 0-15.228-2.853-22.49-7.605-8.659-5.66-19.438-12.702-39.568-12.702-20.156 0-30.935 7.057-39.628 12.749-7.218 4.715-11.577 7.558-22.43 7.558-9.417 0-13.946-2.145-19.712-5.805l16.54-23.291h180.922z"/><path d="M382.73 76.979c12.693-8.463 16.354-25.974 8.194-39.122-8.155-13.147-25.058-16.957-37.737-8.499-12.684 8.458-16.355 25.974-8.195 39.127 8.18 13.162 25.043 16.957 37.737 8.494z"/></g></svg>